<svg xmlns="http://www.w3.org/2000/svg" version="1.1" xmlns:xlink="http://www.w3.org/1999/xlink" width="512" height="512" x="0" y="0" viewBox="0 0 512 512" style="enable-background:new 0 0 512 512" xml:space="preserve" class=""><g><path d="M256 125.43V38.01c0-16.85-13.66-30.51-30.51-30.51h-97.6c-16.85 0-30.51 13.66-30.51 30.51v11.55M130.43 84.84v13.97c0 7.46-6.05 13.51-13.51 13.51H77.84c-7.46 0-13.51-6.05-13.51-13.51V84.84" style="stroke-width: 19; stroke-linecap: round; stroke-linejoin: round; stroke-miterlimit: 10;" fill="none" stroke="#ed143d" stroke-width="19" stroke-linecap="round" stroke-linejoin="round" stroke-miterlimit="10" data-original="#000000" class="" opacity="1"></path><path d="M110.69 84.84h30.79c1.92 0 3.67-.78 4.93-2.05a6.962 6.962 0 0 0 2.04-4.93c0-15.63-12.67-28.3-28.3-28.3H74.6c-7.82 0-14.89 3.17-20.01 8.29S46.3 70.04 46.3 77.86c0 3.85 3.13 6.98 6.98 6.98h22.41M414.62 49.56V38.01c0-16.85-13.66-30.51-30.51-30.51h-97.6C269.66 7.5 256 21.16 256 38.01v87.42M447.67 84.84v13.97c0 7.46-6.05 13.51-13.51 13.51h-39.08c-7.46 0-13.51-6.05-13.51-13.51V84.84" style="stroke-width: 19; stroke-linecap: round; stroke-linejoin: round; stroke-miterlimit: 10;" fill="none" stroke="#ed143d" stroke-width="19" stroke-linecap="round" stroke-linejoin="round" stroke-miterlimit="10" data-original="#000000" class="" opacity="1"></path><path d="M370.52 84.836h88.204a6.973 6.973 0 0 0 6.973-6.973v0c0-15.63-12.671-28.301-28.301-28.301h-45.548c-15.63 0-28.301 12.671-28.301 28.301v0a6.973 6.973 0 0 0 6.973 6.973zM278.19 285.96V133.43c0-4.42-3.58-8-8-8h-28.38c-4.42 0-8 3.58-8 8v152.53M290.96 471.56v-85.22" style="stroke-width: 19; stroke-linecap: round; stroke-linejoin: round; stroke-miterlimit: 10;" fill="none" stroke="#ed143d" stroke-width="19" stroke-linecap="round" stroke-linejoin="round" stroke-miterlimit="10" data-original="#000000" class="" opacity="1"></path><path d="M221.04 471.56V301.64c0-8.84 7.17-16 16-16h37.92c8.83 0 16 7.16 16 16v49.7M7.5 504.5h497" style="stroke-width: 19; stroke-linecap: round; stroke-linejoin: round; stroke-miterlimit: 10;" fill="none" stroke="#ed143d" stroke-width="19" stroke-linecap="round" stroke-linejoin="round" stroke-miterlimit="10" data-original="#000000" class="" opacity="1"></path><path d="M221.04 433.47h22.42c3.32 0 6-2.69 6-6v-91.41c0-3.31-2.68-6-6-6h-22.42M188.686 504.5v-16.936c0-8.837 7.163-16 16-16h102.628c8.837 0 16 7.163 16 16V504.5M97.378 142.217v25M62.378 142.217l-12.5 21.651M132.378 142.217l12.5 21.651M414.622 142.217v25M379.622 142.217l-12.5 21.651M449.622 142.217l12.5 21.651" style="stroke-width: 19; stroke-linecap: round; stroke-linejoin: round; stroke-miterlimit: 10;" fill="none" stroke="#ed143d" stroke-width="19" stroke-linecap="round" stroke-linejoin="round" stroke-miterlimit="10" data-original="#000000" class="" opacity="1"></path></g></svg>