<svg xmlns="http://www.w3.org/2000/svg" version="1.1" xmlns:xlink="http://www.w3.org/1999/xlink" width="512" height="512" x="0" y="0" viewBox="0 0 496.867 496" style="enable-background:new 0 0 512 512" xml:space="preserve" class=""><g><path d="M484.305 231.559a8.264 8.264 0 0 1-.735-9.555 50.061 50.061 0 0 0 6.012-39.035 48.453 48.453 0 0 0-24.367-30.977 8.012 8.012 0 0 1-3.934-8.644c.399-1.891.7-3.797.903-5.715a8.262 8.262 0 0 0-4.649-8.32 8.255 8.255 0 0 0-9.39 1.597l-39.278 39.274-239.078 239.07-39.309 39.309a8.26 8.26 0 0 0 6.739 14.039 57.251 57.251 0 0 0 5.699-.899 8.007 8.007 0 0 1 8.652 3.93 48.456 48.456 0 0 0 30.97 24.379 50.128 50.128 0 0 0 38.968-5.98 8.268 8.268 0 0 1 9.715.777 49.738 49.738 0 0 0 32.922 12.468c1.527 0 3.058-.066 4.593-.215a50.654 50.654 0 0 0 34.809-19.05 8.403 8.403 0 0 1 9.34-2.625 49.868 49.868 0 0 0 39.511-1.266 50.795 50.795 0 0 0 26.426-29.726 8.495 8.495 0 0 1 8.094-5.649 51.25 51.25 0 0 0 36.676-14.742 50.532 50.532 0 0 0 14.773-36.59 8.638 8.638 0 0 1 5.688-8.152 50.841 50.841 0 0 0 29.672-26.426 49.83 49.83 0 0 0 1.289-39.414 8.44 8.44 0 0 1 2.652-9.457 50.745 50.745 0 0 0 18.992-34.809 49.79 49.79 0 0 0-12.355-37.597zM371.062 371.484c-47.218 47.618-117.777 63.512-180.851 40.735l13.27-13.278a157.967 157.967 0 0 0 45.496 6.872 156.75 156.75 0 0 0 125.433-63.461 156.762 156.762 0 0 0 24.13-138.493l13.21-13.21c22.77 63.062 6.898 133.601-40.687 180.835zm14.04-154.156c10.98 47.133-3.153 96.598-37.375 130.813-34.223 34.218-83.684 48.343-130.817 37.355zm82.414 73.582a24.891 24.891 0 0 0-7.868 28.508 32.836 32.836 0 0 1-.828 26.34 34.24 34.24 0 0 1-19.918 17.824 25.08 25.08 0 0 0-17.05 24.137 33.853 33.853 0 0 1-9.668 24.394 33.837 33.837 0 0 1-24.192 10.164h-1.105a25.07 25.07 0 0 0-23.696 16.98 34.168 34.168 0 0 1-17.812 19.95 32.866 32.866 0 0 1-26.426.828 24.848 24.848 0 0 0-28.383 7.86 34.012 34.012 0 0 1-23.351 12.761 32.929 32.929 0 0 1-24.906-8.101 24.221 24.221 0 0 0-16.336-6.243 25.022 25.022 0 0 0-13.122 3.715 33.088 33.088 0 0 1-26.128 4.028 32.127 32.127 0 0 1-20.532-16.153 24.241 24.241 0 0 0-11.105-10.52l22.32-22.386c70.63 28.504 151.45 12.043 205.3-41.812 53.856-53.856 70.313-134.68 41.81-205.301l22.41-22.414a24.147 24.147 0 0 0 10.52 11.097 32.215 32.215 0 0 1 16.155 20.54 33.135 33.135 0 0 1-4.066 26.18 24.61 24.61 0 0 0 2.48 29.312 33.123 33.123 0 0 1 8.184 24.957 34.01 34.01 0 0 1-12.719 23.355zM13.29 275.715a50.056 50.056 0 0 0-5.993 39.035 48.45 48.45 0 0 0 24.351 30.977 8.004 8.004 0 0 1 3.93 8.644c-.398 1.89-.7 3.797-.898 5.715a8.264 8.264 0 0 0 4.644 8.32 8.26 8.26 0 0 0 9.395-1.597l39.273-39.274L327.098 88.438l39.257-39.266a8.253 8.253 0 0 0 1.594-9.402 8.249 8.249 0 0 0-8.332-4.637 57.251 57.251 0 0 0-5.699.898 8.001 8.001 0 0 1-8.652-3.93A48.461 48.461 0 0 0 314.32 7.724a50.015 50.015 0 0 0-38.968 5.98 8.256 8.256 0 0 1-9.711-.777A49.61 49.61 0 0 0 228.125.648 50.645 50.645 0 0 0 193.316 19.7a8.418 8.418 0 0 1-9.34 2.625 49.828 49.828 0 0 0-39.515 1.262 50.826 50.826 0 0 0-26.426 29.73 8.076 8.076 0 0 1-8.094 5.649A51.078 51.078 0 0 0 73.254 73.68a50.525 50.525 0 0 0-14.758 36.625 8.647 8.647 0 0 1-5.691 8.152 50.852 50.852 0 0 0-29.672 26.426 49.845 49.845 0 0 0-1.285 39.414 8.446 8.446 0 0 1-2.653 9.457A50.745 50.745 0 0 0 .203 228.563a49.797 49.797 0 0 0 12.387 37.574 8.253 8.253 0 0 1 .7 9.578zm112.507-149.473c47.223-47.61 117.777-63.504 180.851-40.734l-13.21 13.254c-55.227-16.684-115.153-1.637-155.946 39.152-40.797 40.793-55.847 100.715-39.168 155.941L85.07 307.113c-22.777-63.082-6.886-133.648 40.727-180.879zm-14.035 154.156c-10.989-47.136 3.144-96.605 37.37-130.824 34.223-34.222 83.692-48.344 130.829-37.351zm-82.418-73.582a24.883 24.883 0 0 0 7.87-28.503 32.845 32.845 0 0 1 .825-26.344 34.263 34.263 0 0 1 19.918-17.824A25.084 25.084 0 0 0 75.012 110a33.85 33.85 0 0 1 9.664-24.395 33.846 33.846 0 0 1 24.195-10.164h1.106a25.07 25.07 0 0 0 23.691-16.98 34.2 34.2 0 0 1 17.848-19.934 32.866 32.866 0 0 1 26.425-.828 24.841 24.841 0 0 0 28.375-7.851 34.022 34.022 0 0 1 23.352-12.758 32.898 32.898 0 0 1 24.906 8.101 24.676 24.676 0 0 0 29.457 2.524 33.136 33.136 0 0 1 26.13-4.027 32.139 32.139 0 0 1 20.53 16.152 24.222 24.222 0 0 0 11.106 10.52l-22.395 22.413c-70.625-28.53-151.46-12.082-205.316 41.786-53.852 53.863-70.285 134.703-41.742 205.32l-22.41 22.371a24.155 24.155 0 0 0-10.524-11.098 32.221 32.221 0 0 1-16.152-20.539 33.118 33.118 0 0 1 4.062-26.18 24.622 24.622 0 0 0-2.476-29.316 33.077 33.077 0 0 1-8.184-24.953A34.01 34.01 0 0 1 29.38 206.81zM122.379 425.715a8.255 8.255 0 0 0 11.8-8.297 8.256 8.256 0 0 0-4.96-6.734l-64.223-29.192a8.26 8.26 0 0 0-9.25 1.68 8.26 8.26 0 0 0-1.684 9.246l29.208 64.23a8.252 8.252 0 0 0 6.734 5.024A8.26 8.26 0 0 0 98.3 449.82l-4.957-10.851 18.168-18.168zm-36.336-2.8-7.852-17.286 17.274 7.855zM149.16 403.102a8.261 8.261 0 0 0 7.637-5.094 8.258 8.258 0 0 0-1.79-9l-17.523-17.524 5.848-5.84c9.672-9.68 9.668-25.367-.012-35.039-9.675-9.671-25.363-9.668-35.035.008l-5.84 5.84a16.523 16.523 0 0 0-4.84 11.68c0 4.383 1.743 8.586 4.84 11.683l17.426 17.414.09.098.098.102 23.261 23.261a8.25 8.25 0 0 0 5.84 2.41zm-17.515-49.133-5.848 5.836-11.676-11.676 5.84-5.84a8.263 8.263 0 0 1 7.977-2.14 8.262 8.262 0 0 1 3.707 13.82zM195.875 356.387a8.256 8.256 0 0 0 7.629-5.098 8.265 8.265 0 0 0-1.79-9L184.2 324.766l5.84-5.836c9.387-9.723 9.254-25.172-.3-34.73-9.56-9.555-25.012-9.692-34.731-.302l-5.848 5.84c-6.445 6.45-6.445 16.903 0 23.352l40.88 40.879a8.259 8.259 0 0 0 5.835 2.418zm-17.516-49.133-5.836 5.836-11.675-11.676 5.836-5.84a8.259 8.259 0 0 1 11.676 11.68zM274.203 278.059a8.258 8.258 0 0 0-8.258-8.258h-27.062c7.976-10.352 6.539-25.117-3.281-33.735-9.82-8.62-24.649-8.132-33.88 1.118l-5.835 5.836c-6.45 6.449-6.45 16.906 0 23.355l40.875 40.879a8.265 8.265 0 0 0 11.492-.188c3.148-3.156 3.23-8.242.176-11.492l-9.258-9.258h26.773a8.255 8.255 0 0 0 8.258-8.257zm-49.125-17.524-5.84 5.848-11.683-11.684 5.836-5.84a8.27 8.27 0 0 1 7.98-2.14 8.254 8.254 0 0 1 5.84 5.84 8.253 8.253 0 0 1-2.133 7.976zM306.824 248.86c9.649-9.688 9.649-25.352 0-35.04l-23.355-23.343c-9.801-9.368-25.235-9.368-35.04 0-9.671 9.671-9.671 25.355 0 35.027l23.356 23.355a24.774 24.774 0 0 0 35.04 0zm-46.715-35.04a8.26 8.26 0 0 1-2.254-8.03 8.268 8.268 0 0 1 5.899-5.9 8.26 8.26 0 0 1 8.031 2.255l23.352 23.351a8.262 8.262 0 0 1-11.676 11.688zM347.7 204.563a8.26 8.26 0 0 0 7.078-12.504l-35.032-58.399c-2.348-3.91-7.422-5.18-11.332-2.828-3.91 2.348-5.18 7.422-2.828 11.332l17.992 30.07-30.058-18.047c-3.91-2.343-8.985-1.078-11.329 2.833a8.26 8.26 0 0 0 2.832 11.332l58.383 35.039a8.32 8.32 0 0 0 4.293 1.172zM382.738 169.531a8.259 8.259 0 0 0 5.782-2.36l23.593-23.124a8.26 8.26 0 1 0-11.562-11.8l-17.754 17.39-11.742-11.735 11.683-11.675a8.26 8.26 0 0 0 2.254-8.032 8.268 8.268 0 0 0-5.898-5.898 8.26 8.26 0 0 0-8.031 2.254l-11.684 11.676-11.68-11.684 17.516-17.516a8.259 8.259 0 0 0-11.676-11.68l-23.351 23.364a8.252 8.252 0 0 0 0 11.676l23.351 23.355 23.363 23.363a8.25 8.25 0 0 0 5.836 2.426zM429.45 122.809c2.187 0 4.288-.871 5.835-2.422l5.84-5.836c12.895-12.899 12.895-33.809 0-46.707l-11.676-11.68c-12.902-12.894-33.808-12.894-46.71 0l-5.837 5.84c-3.222 3.226-3.222 8.453 0 11.676l46.707 46.707a8.248 8.248 0 0 0 5.84 2.422zm-11.68-54.965 11.68 11.676c6.445 6.449 6.445 16.902 0 23.355l-35.032-35.031c6.535-6.235 16.816-6.235 23.352 0zm0 0" fill="#ed143d" opacity="1" data-original="#000000" class=""></path></g></svg>