<svg xmlns="http://www.w3.org/2000/svg" version="1.1" xmlns:xlink="http://www.w3.org/1999/xlink" width="512" height="512" x="0" y="0" viewBox="0 0 512.057 512.057" style="enable-background:new 0 0 512 512" xml:space="preserve" class=""><g><path d="M126.032 447.043c-13.254.492-13.244 19.512 0 20h30c13.254-.492 13.244-19.512 0-20h-5v-70c0-5.522-4.478-10-10-10h-14.999c-13.254.492-13.244 19.512 0 20h4.999v60zM206.032 467.043c16.542 0 30-13.458 30-30v-40c-1.513-39.754-58.501-39.724-60 0v40c0 16.542 13.458 30 30 30zm-10-70c.505-13.251 19.5-13.241 20 0v40c-.505 13.251-19.5 13.241-20 0zM281.032 467.043c16.542 0 30-13.458 30-30v-40c-1.513-39.754-58.501-39.724-60 0v40c0 16.542 13.458 30 30 30zm-10-70c.505-13.251 19.5-13.241 20 0v40c-.505 13.251-19.5 13.241-20 0zM336.123 465.759c4.725 2.683 10.895 1.046 13.618-3.813l45-80c2.708-4.813 1-10.91-3.813-13.618-4.812-2.709-10.91-1-13.618 3.813l-45 80c-2.709 4.813-1.001 10.91 3.813 13.618zM341.032 387.044c13.254-.492 13.244-19.512 0-20h-.007c-13.255.494-13.237 19.514.007 20zM386.025 447.043h-.008c-5.522 0-9.996 4.478-9.996 10 .492 13.248 19.515 13.249 20.004 0 0-5.522-4.478-10-10-10z" fill="#ed143d" opacity="1" data-original="#000000" class=""></path><path d="m493.021 372.043 18.761-82.789a10.002 10.002 0 0 0-9.752-12.21h-47.055C502.095 144.501 396.935-2.368 256.027.043 115.145-2.373 9.93 144.515 57.083 277.044H10.028a10 10 0 0 0-9.752 12.21l18.761 82.789-18.761 82.79c-1.528 6.034 3.53 12.367 9.753 12.21h56v35c0 5.522 4.478 10 10 10h360c5.522 0 10-4.478 10-10v-35h56.001c6.223.157 11.281-6.176 9.753-12.21zM256.028 20.041c153.849-1.173 245 178.634 153.478 302.002H102.551c-91.547-123.397-.318-303.191 153.477-302.002zM22.547 447.043l16.495-72.79a10.02 10.02 0 0 0 0-4.42l-16.495-72.789h42.415a210.151 210.151 0 0 0 13.442 24.999h-2.377c-5.522 0-10 4.478-10 10v115zm403.481 45h-340v-150h340zm46.986-117.79 16.495 72.79h-43.481v-115c0-5.522-4.478-10-10-10h-2.376a210.151 210.151 0 0 0 13.442-24.999h42.415l-16.495 72.789a10.02 10.02 0 0 0 0 4.42z" fill="#ed143d" opacity="1" data-original="#000000" class=""></path><path d="M171.028 276.042h140c27.57 0 50-22.43 50-50v-60c0-16.542-13.458-29.999-30-29.999h-50c0-27.57-22.43-50-50-50h-10c-5.522 0-10 4.478-10 10v60h-40c-5.522 0-10 4.478-10 10v99.999c0 5.522 4.477 10 10 10zm60-169.999c16.542 0 30 13.458 30 30v10c0 5.522 4.478 10 10 10h60c5.514 0 10 4.485 10 9.999v60c0 16.542-13.458 30-30 30h-80zm-50 70h30v79.999h-30z" fill="#ed143d" opacity="1" data-original="#000000" class=""></path></g></svg>